# xmcd CD database file
#
# Track frame offsets:
#	150
#	19908
#	37682
#	60274
#	77925
#	97311
#	114678
#	132943
#	153332
#	172265
#	193659
#	214771
#	234401
#	252398
#	270998
#	288062
#	305242
#
# Disc length: 4344 seconds
#
# Revision: 3
# Processed by: cddbd v1.5.2PL0 Copyright (c) Steve Scherf et al.
# Submitted via: CDex 1.70beta3
#
DISCID=ef10f611
DTITLE=陈慧娴 - 柔情金曲
DYEAR=1900
DGENRE=Country
TTITLE0=孤单背影
TTITLE1=飘雪
TTITLE2=千千阙歌
TTITLE3=人生何处不相逢
TTITLE4=玻璃窗的爱
TTITLE5=傻女
TTITLE6=失去的诺言
TTITLE7=夜机
TTITLE8=红茶馆
TTITLE9=月亮
TTITLE10=归来吧
TTITLE11=我寂寞
TTITLE12=花店
TTITLE13=多少柔情多少梦
TTITLE14=今天夜里总下雨
TTITLE15=跳舞街
TTITLE16=与泪抱拥
EXTD=
EXTT0=
EXTT1=
EXTT2=
EXTT3=
EXTT4=
EXTT5=
EXTT6=
EXTT7=
EXTT8=
EXTT9=
EXTT10=
EXTT11=
EXTT12=
EXTT13=
EXTT14=
EXTT15=
EXTT16=
PLAYORDER=
